<svg xmlns="http://www.w3.org/2000/svg" viewBox="0 0 126.41 126.41"><path fill="#fff" d="M61.556 57.172l-16.571 9.572 16.571 9.573 16.49-9.573-16.49-9.572z"/><path fill="#131313" d="M61.556 77.121c-.161 0-.241 0-.402-.08l-16.571-9.573c-.402-.241-.483-.724-.322-1.126a.629.629 0 0 1 .322-.322l16.571-9.573a.73.73 0 0 1 .804 0l16.491 9.573c.402.241.483.724.322 1.126a.629.629 0 0 1-.322.322l-16.491 9.573c-.161.08-.322.08-.402.08zM46.594 66.744l14.962 8.607 14.962-8.607-14.962-8.607-14.962 8.607z"/><path fill="#d7d7d7" d="M44.985 88.866l16.571 9.573V76.317l-16.571-9.573v22.122z"/><path fill="#131313" d="M61.556 99.243c-.161 0-.241 0-.402-.08L44.583 89.51a.845.845 0 0 1-.402-.724V66.745c0-.483.322-.804.804-.804.161 0 .241 0 .402.08l16.571 9.573a.845.845 0 0 1 .402.724V98.44c0 .402-.402.804-.804.804zm-15.767-10.86l14.962 8.607V76.799l-14.962-8.688v20.271z"/><path fill="#d7d7d7" d="M78.046 88.866l-16.49 9.573V76.317l16.49-9.573v22.122z"/><path fill="#131313" d="M61.556 99.243c-.483 0-.804-.322-.804-.804V76.317c0-.322.161-.563.402-.724l16.491-9.573c.402-.241.885-.08 1.126.322.08.161.08.241.08.402v22.122a.845.845 0 0 1-.402.724l-16.571 9.573c-.08 0-.241.08-.322.08zM62.36 76.8v20.191l14.962-8.607V68.113L62.36 76.801z"/><path fill="#d7d7d7" d="M61.556 76.317v2.976l16.49 9.573V66.744l-16.49 9.573z"/><path fill="#131313" d="M78.046 89.67c-.161 0-.241 0-.402-.08l-16.491-9.653c-.322-.08-.402-.402-.402-.644v-2.976c0-.322.161-.563.402-.724l16.491-9.573c.402-.241.885-.08 1.126.322.08.161.08.241.08.402v22.122a.806.806 0 0 1-.804.804zM62.36 78.81l14.962 8.607V68.111L62.36 76.799v2.011z"/><path fill="#d7d7d7" d="M78.046 66.744l-4.102 10.217-6.838-3.862 10.94-6.355z"/><path fill="#131313" d="M78.046 89.67c-.161 0-.241 0-.402-.08l-16.491-9.653c-.322-.08-.402-.402-.402-.644v-2.976c0-.322.161-.563.402-.724l16.491-9.573c.402-.241.885-.08 1.126.322.08.161.08.241.08.402v22.122a.806.806 0 0 1-.804.804zM62.36 78.81l14.962 8.607V68.111L62.36 76.799v2.011zM80.701 92.245c-.483 0-.804-.322-.804-.804 0-.322.161-.563.402-.724l4.344-2.494c.402-.241.885-.08 1.126.322s.08.885-.322 1.126l-4.424 2.494c-.08 0-.241.08-.322.08z"/><path fill="#c6befe" d="M61.556 88.866l16.33 9.412v9.572l-16.33-9.411v-9.573z"/><path fill="#c6befe" d="M77.886 108.655c-.161 0-.241 0-.402-.08l-16.33-9.412a.845.845 0 0 1-.402-.724v-9.573c0-.483.322-.804.804-.804.161 0 .241 0 .402.08l16.33 9.412a.845.845 0 0 1 .402.724v9.492c0 .483-.402.885-.804.885zM62.361 97.956l14.721 8.527v-7.642l-14.721-8.607v7.722zM67.106 73.099l27.351 15.687v9.492L61.556 79.293v-2.976l5.55-3.218z"/><path fill="#c6befe" d="M94.457 99.082c-.161 0-.241 0-.402-.08L61.154 79.937c-.322-.08-.402-.402-.402-.644v-2.976c0-.322.161-.563.402-.724l5.631-3.218a.73.73 0 0 1 .804 0l27.27 15.686a.845.845 0 0 1 .402.724v9.492c-.08.402-.402.804-.804.804zM62.361 78.811L93.653 96.91v-7.642L67.107 73.984l-4.827 2.815.08 2.011z"/><path fill="#c6befe" d="M61.556 79.293l8.285 4.746-2.735-10.94-5.55 3.218v2.976z"/><path fill="#c6befe" d="M69.841 84.039l2.977-7.722-5.712-3.218-1.448 4.103 4.183 6.837zM77.886 108.655c-.161 0-.241 0-.402-.08l-16.33-9.412a.845.845 0 0 1-.402-.724v-9.573c0-.483.322-.804.804-.804.161 0 .241 0 .402.08l16.33 9.412a.845.845 0 0 1 .402.724v9.492c0 .483-.402.885-.804.885zM62.361 97.956l14.721 8.527v-7.642l-14.721-8.607v7.722z"/><path fill="#c6befe" d="M94.457 99.082c-.161 0-.241 0-.402-.08L61.154 79.937c-.322-.08-.402-.402-.402-.644v-2.976c0-.322.161-.563.402-.724l5.631-3.218a.73.73 0 0 1 .804 0l27.27 15.686a.845.845 0 0 1 .402.724v9.492c-.08.402-.402.804-.804.804zM62.361 78.811L93.653 96.91v-7.642L67.107 73.984l-4.827 2.815.08 2.011z"/><path fill="#c6befe" d="M77.886 99.082c-.161 0-.241 0-.402-.08l-16.33-9.412a.845.845 0 0 1-.402-.724v-9.573c0-.483.322-.804.804-.804.161 0 .241 0 .402.08l16.33 9.412a.845.845 0 0 1 .402.724v9.573a.805.805 0 0 1-.804.804zM62.361 88.383l14.721 8.527v-7.722l-14.721-8.527v7.722z"/><path fill="#fff" d="M77.886 98.278v-9.573l-16.33-9.412v9.573l16.33 9.412z"/><path fill="#c6befe" d="M77.886 99.082c-.161 0-.241 0-.402-.08l-16.33-9.412a.845.845 0 0 1-.402-.724v-9.573c0-.483.322-.804.804-.804.161 0 .241 0 .402.08l16.33 9.412a.845.845 0 0 1 .402.724v9.573a.805.805 0 0 1-.804.804zM62.361 88.383l14.721 8.527v-7.722l-14.721-8.527v7.722z"/><path fill="#c6befe" d="M69.841 84.039l-8.285-4.746v9.573l8.285-4.827z"/><path fill="#4b00aa" d="M77.886 99.082c-.161 0-.241 0-.402-.08l-16.33-9.412a.845.845 0 0 1-.402-.724v-9.573c0-.483.322-.804.804-.804.161 0 .241 0 .402.08l16.33 9.412a.845.845 0 0 1 .402.724v9.573a.805.805 0 0 1-.804.804zM62.361 88.383l14.721 8.527v-7.722l-14.721-8.527v7.722z"/><path fill="#c6befe" d="M97.916 100.289l-16.571 9.572V87.74l16.571-9.492v22.041z"/><path fill="#c6befe" d="M81.345 110.666c-.483 0-.804-.322-.804-.804V87.74c0-.322.161-.563.402-.724l16.571-9.573c.402-.241.885-.08 1.126.322.08.161.08.241.08.402v22.122a.845.845 0 0 1-.402.724l-16.571 9.573c-.08.08-.241.08-.402.08zm.804-22.443v20.191l14.962-8.607V79.616l-14.962 8.607z"/><path fill="#7855fa" d="M87.458 96.106c-.483 0-.804-.322-.804-.804 0-.322.161-.563.402-.724l4.424-2.494c.402-.241.885-.08 1.126.322s.08.885-.322 1.126l-4.424 2.494c-.161.08-.241.08-.402.08z"/><path fill="#fff" d="M97.916 78.248l-3.459-2.092-16.571 9.573 3.459 2.011 16.571-9.492z"/><path fill="#7855fa" d="M81.345 88.544c-.161 0-.241 0-.402-.08l-3.539-2.011c-.402-.241-.483-.724-.322-1.126a.629.629 0 0 1 .322-.322l16.571-9.573a.73.73 0 0 1 .804 0l3.539 2.011c.402.241.483.724.322 1.126a.629.629 0 0 1-.322.322l-16.571 9.573c-.08.08-.241.08-.402.08zm-1.85-2.815l1.931 1.126 14.962-8.607-1.931-1.126-14.962 8.607z"/><path fill="#fff" d="M81.345 109.861l-3.459-2.011V85.729l3.459 2.011v22.121z"/><path fill="#7855fa" d="M81.345 110.666c-.161 0-.241 0-.402-.08l-3.539-2.011a.845.845 0 0 1-.402-.724V85.729c0-.483.322-.804.804-.804.161 0 .241 0 .402.08l3.539 2.011a.845.845 0 0 1 .402.724v22.122c0 .483-.322.804-.804.804zm-2.655-3.298l1.931 1.126V88.223l-1.931-1.126v20.271z"/><path fill="#4b00aa" d="M81.345 110.666c-.161 0-.241 0-.402-.08L61.074 99.163a.845.845 0 0 1-.402-.724V76.317c0-.322.161-.563.402-.724l5.631-3.218a.73.73 0 0 1 .804 0l16.008 9.17 10.538-6.033a.73.73 0 0 1 .804 0l3.539 2.011a.845.845 0 0 1 .402.724v22.122a.845.845 0 0 1-.402.724l-16.571 9.573h-.483zm-18.984-12.71l19.065 11.021 15.767-9.09V78.65l-2.735-1.528-10.538 6.033a.73.73 0 0 1-.804 0l-16.008-9.17-4.827 2.815.08 21.156z"/><path fill="#131313" d="M61.556 77.121c-.483 0-.804-.322-.804-.804 0-.322.161-.563.402-.724l16.571-9.573c.402-.241.885-.08 1.126.322s.08.885-.322 1.126l-16.571 9.573c-.161.08-.322.08-.402.08z"/><path fill="#131313" d="M61.556 99.243c-.483 0-.804-.322-.804-.804V76.317c0-.483.322-.804.804-.804s.804.322.804.804v22.122c0 .402-.402.804-.804.804z"/><path fill="#4b00aa" d="M77.886 99.082c-.161 0-.241 0-.402-.08l-16.33-9.412c-.402-.241-.483-.724-.322-1.126.241-.402.724-.483 1.126-.322l16.33 9.412c.402.241.483.724.322 1.126-.241.241-.483.402-.724.402z"/><path fill="#fff" d="M44.985 66.744l-16.571 9.573 16.571 9.573 16.571-9.573-16.571-9.573z"/><path fill="#757575" d="M44.985 86.694c-.161 0-.241 0-.402-.08l-16.571-9.573c-.402-.241-.483-.724-.322-1.126a.629.629 0 0 1 .322-.322l16.571-9.573a.73.73 0 0 1 .804 0l16.571 9.573c.402.241.483.724.322 1.126a.629.629 0 0 1-.322.322l-16.571 9.573c-.161 0-.322.08-.402.08zM30.023 76.317l14.962 8.607 14.962-8.607-14.962-8.607-14.962 8.607z"/><path fill="#d7d7d7" d="M28.414 98.439l16.571 9.492V85.89l-16.571-9.573v22.122z"/><path fill="#757575" d="M44.985 108.735c-.161 0-.241 0-.402-.08l-16.571-9.573a.845.845 0 0 1-.402-.724V76.317c0-.483.322-.804.804-.804.161 0 .241 0 .402.08l16.571 9.573a.845.845 0 0 1 .402.724v22.122c0 .402-.402.724-.804.724zM29.218 97.956l14.962 8.607V86.372l-14.962-8.688v20.271z"/><path fill="#d7d7d7" d="M61.556 98.439l-16.571 9.492V85.89l16.571-9.573v22.122z"/><path fill="#757575" d="M44.985 108.735c-.483 0-.804-.322-.804-.804V85.89c0-.322.161-.563.402-.724l16.571-9.573c.402-.241.885-.08 1.126.322.08.161.08.241.08.402v22.122a.845.845 0 0 1-.402.724l-16.571 9.573h-.402zm.804-22.363v20.191l14.962-8.607V77.685l-14.962 8.688z"/><path fill="#757575" d="M51.018 94.256c-.483 0-.804-.322-.804-.804 0-.322.161-.563.402-.724l4.424-2.494c.402-.241.885-.08 1.126.322.241.402.08.885-.322 1.126l-4.424 2.494c-.08 0-.241.08-.402.08z"/><path fill="#131313" d="M44.985 108.735c-.161 0-.241 0-.402-.08l-16.571-9.573a.845.845 0 0 1-.402-.724V76.317c0-.322.161-.563.402-.724l16.571-9.573a.73.73 0 0 1 .804 0l16.571 9.573a.845.845 0 0 1 .402.724v22.122a.845.845 0 0 1-.402.724l-16.571 9.573h-.402zM29.218 97.956l15.767 9.09 15.767-9.09V76.8l-15.767-9.09-15.767 9.09v21.156z"/><path fill="#fff" d="M61.556 35.131l-16.571 9.572 16.571 9.492 16.49-9.492-16.49-9.572z"/><path fill="#757575" d="M61.556 55c-.161 0-.241 0-.402-.08l-16.571-9.573c-.402-.241-.483-.724-.322-1.126a.629.629 0 0 1 .322-.322l16.571-9.573a.73.73 0 0 1 .804 0l16.491 9.653c.402.241.483.724.322 1.126a.629.629 0 0 1-.322.322l-16.491 9.492c-.161.08-.322.08-.402.08zM46.594 44.703l14.962 8.607 14.882-8.607-14.882-8.688-14.962 8.688z"/><path fill="#d7d7d7" d="M44.985 66.744l16.571 9.573V54.195l-16.571-9.492v22.041z"/><path fill="#757575" d="M61.556 77.121c-.161 0-.241 0-.402-.08l-16.571-9.573a.845.845 0 0 1-.402-.724V44.703c0-.483.322-.804.804-.804.161 0 .241 0 .402.08l16.571 9.573a.845.845 0 0 1 .402.724v22.122c0 .402-.402.724-.804.724zm-15.767-10.86l14.962 8.688V54.678l-14.962-8.607v20.191z"/><path fill="#d7d7d7" d="M78.046 66.744l-16.49 9.573V54.195l16.49-9.492v22.041z"/><path fill="#757575" d="M61.556 77.121c-.483 0-.804-.322-.804-.804V54.195c0-.322.161-.563.402-.724l16.491-9.492c.402-.241.885-.08 1.126.322.08.161.08.241.08.402v22.041a.845.845 0 0 1-.402.724l-16.491 9.573c-.161.08-.322.08-.402.08zm.804-22.443v20.191l14.962-8.607V46.071L62.36 54.678z"/><path fill="#757575" d="M67.589 62.642c-.483 0-.804-.322-.804-.804 0-.322.161-.563.402-.724l4.424-2.494c.402-.241.885-.08 1.126.322s.08.885-.322 1.126l-4.424 2.413a.615.615 0 0 1-.402.161z"/><path fill="#131313" d="M61.556 77.121c-.161 0-.241 0-.402-.08l-16.571-9.573a.845.845 0 0 1-.402-.724V44.703c0-.322.161-.563.402-.724l16.571-9.573a.73.73 0 0 1 .804 0l16.491 9.573a.845.845 0 0 1 .402.724v22.041a.845.845 0 0 1-.402.724l-16.491 9.573c-.161.08-.322.08-.402.08zm-15.767-10.86l15.767 9.09 15.767-9.09V45.105l-15.767-9.09-15.767 9.09v21.156z"/><path fill="#fff" d="M44.985 44.703l-16.571 9.492 16.571 9.573 16.571-9.573-16.571-9.492z"/><path fill="#757575" d="M44.985 64.572c-.161 0-.241 0-.402-.08l-16.571-9.573c-.402-.241-.483-.724-.322-1.126a.629.629 0 0 1 .322-.322l16.571-9.573a.73.73 0 0 1 .804 0l16.571 9.653c.402.241.483.724.322 1.126a.629.629 0 0 1-.322.322l-16.571 9.492c-.161.08-.322.08-.402.08zM30.023 54.195l14.962 8.607 14.962-8.607-14.962-8.607-14.962 8.607z"/><path fill="#d7d7d7" d="M28.414 76.317l16.571 9.573V63.768l-16.571-9.573v22.122z"/><path fill="#757575" d="M44.985 86.694c-.161 0-.241 0-.402-.08l-16.571-9.573a.845.845 0 0 1-.402-.724V54.195c0-.483.322-.804.804-.804.161 0 .241 0 .402.08l16.571 9.573a.845.845 0 0 1 .402.724V85.89c0 .402-.402.804-.804.804zm-15.767-10.86l14.962 8.607V64.25l-14.962-8.607v20.191z"/><path fill="#d7d7d7" d="M61.556 76.317L44.985 85.89V63.768l16.571-9.573v22.122z"/><path fill="#757575" d="M44.985 86.694c-.483 0-.804-.322-.804-.804V63.768c0-.322.161-.563.402-.724l16.571-9.492c.402-.241.885-.08 1.126.322.08.161.08.241.08.402v22.122a.845.845 0 0 1-.402.724l-16.571 9.492c-.161 0-.322.08-.402.08zm.804-22.443v20.191l14.962-8.607V55.644l-14.962 8.607z"/><path fill="#757575" d="M51.018 72.134c-.483 0-.804-.322-.804-.804 0-.322.161-.563.402-.724l4.424-2.494c.402-.241.885-.08 1.126.241.241.402.08.885-.241 1.126h-.08l-4.424 2.574c-.08.08-.241.08-.402.08z"/><path fill="#131313" d="M44.985 86.694c-.161 0-.241 0-.402-.08l-16.571-9.573a.845.845 0 0 1-.402-.724V54.195c0-.322.161-.563.402-.724l16.571-9.573a.73.73 0 0 1 .804 0l16.571 9.653a.845.845 0 0 1 .402.724v22.122a.845.845 0 0 1-.402.724l-16.571 9.492c-.161 0-.322.08-.402.08zm-15.767-10.86l15.767 9.09 15.767-9.09V54.678l-15.767-9.09-15.767 9.09v21.156z"/><path fill="#fff" d="M75.311 25.88l-9.974 5.792v13.353l9.974-5.792 10.056 5.792V31.672L75.311 25.88z"/><path fill="#c6befe" d="M85.367 45.829c-.161 0-.241 0-.402-.08l-9.653-5.551-9.653 5.551c-.402.241-.885.08-1.126-.322-.08-.161-.08-.241-.08-.402V31.672c0-.322.161-.563.402-.724l10.055-5.792a.73.73 0 0 1 .804 0l10.055 5.792a.845.845 0 0 1 .402.724v13.353c0 .483-.322.804-.804.804zm-10.055-7.401c.161 0 .241 0 .402.08l8.849 5.068V32.153l-9.251-5.309-9.251 5.309v11.503l8.849-5.068c.161-.08.322-.161.402-.161z"/><path fill="#c6befe" d="M85.367 45.025l-10.056 5.792V37.463l10.056-5.791v13.353z"/><path fill="#7855fa" d="M75.311 51.621c-.483 0-.804-.322-.804-.804V37.464c0-.322.161-.563.402-.724l10.055-5.792c.402-.241.885-.08 1.126.322.08.161.08.241.08.402v13.353a.845.845 0 0 1-.402.724l-10.055 5.792c-.08.08-.241.08-.402.08zm.804-13.675v11.503l8.446-4.827V33.038l-8.446 4.907z"/><path fill="#fff" d="M65.337 45.025l9.974 5.792V37.463l-9.974-5.791v13.353z"/><path fill="#7855fa" d="M75.311 51.621c-.161 0-.241 0-.402-.08l-10.055-5.792a.845.845 0 0 1-.402-.724V31.672c0-.483.322-.804.804-.804.161 0 .241 0 .402.08l10.055 5.792a.845.845 0 0 1 .402.724v13.353c0 .483-.322.804-.804.804zm-9.17-6.998l8.446 4.827V37.947l-8.446-4.827v11.503z"/><path fill="#4b00aa" d="M75.311 51.621c-.161 0-.241 0-.402-.08l-10.055-5.792a.845.845 0 0 1-.402-.724V31.672c0-.322.161-.563.402-.724l10.055-5.792a.73.73 0 0 1 .804 0l10.055 5.792a.845.845 0 0 1 .402.724v13.353a.845.845 0 0 1-.402.724l-10.055 5.792c-.08.08-.241.08-.402.08zm-9.17-6.998l9.251 5.309 9.251-5.309V32.154l-9.251-5.309-9.251 5.309v12.469zM85.367 17.353c-.322 0-.644-.161-.724-.483-.08-.08-.08-.161-.08-.322a.73.73 0 0 1 .241-.563c.322-.322.804-.322 1.126 0s.322.804 0 1.126a.73.73 0 0 1-.563.241zM84.562 26.604c0-.483.322-.804.804-.804.483 0 .804.322.804.804 0 .483-.322.804-.804.804-.483 0-.804-.322-.804-.804zm0-4.987c0-.483.322-.804.804-.804.483 0 .804.322.804.804 0 .483-.322.804-.804.804a.805.805 0 0 1-.804-.804z"/><path fill="#4b00aa" d="M85.367 32.476a.805.805 0 0 1-.804-.804.73.73 0 0 1 .241-.563.777.777 0 0 1 1.126 0 .73.73 0 0 1 .241.563c0 .483-.322.804-.804.804zM65.337 17.353c-.08 0-.241 0-.322-.08-.08 0-.161-.08-.241-.161a.73.73 0 0 1-.241-.563c0-.08 0-.241.08-.322s.08-.161.161-.241c.08-.08.161-.161.241-.161.161-.08.322-.08.483-.08q.08 0 .161.08c.08 0 .08.08.161.08s.08.08.161.08c.08.08.161.161.161.241.08.08.08.161.08.322a.73.73 0 0 1-.241.563s-.08.08-.161.08-.08.08-.161.08-.08 0-.161.08h-.161zM64.532 26.604c0-.483.322-.804.804-.804.483 0 .804.322.804.804 0 .483-.322.804-.804.804-.483 0-.804-.322-.804-.804zm0-4.987c0-.483.322-.804.804-.804.483 0 .804.322.804.804 0 .483-.322.804-.804.804a.805.805 0 0 1-.804-.804zM65.337 32.476c-.08 0-.241 0-.322-.08-.241-.08-.322-.241-.402-.402-.08-.08-.08-.161-.08-.322v-.161c0-.08.08-.241.161-.322l.08-.08c.08-.08.161-.161.241-.161a.516.516 0 0 1 .483 0h.161c.08 0 .08.08.161.08s.08.08.161.08l.08.08c.08.08.08.161.161.322v.161c0 .08 0 .241-.08.322s-.08.161-.161.241l-.161.08c-.08 0-.08.08-.161.08s-.08 0-.161.08h-.161zM77.886 86.533c-.483 0-.804-.322-.804-.804 0-.322.161-.563.402-.724l5.631-3.298c.402-.241.885-.08 1.126.322s.08.885-.322 1.126l-5.631 3.298c-.161.08-.322.08-.402.08z"/><path fill="#4b00aa" d="M77.886 108.655c-.483 0-.804-.322-.804-.804V85.729c0-.483.322-.804.804-.804s.804.322.804.804v22.122c0 .402-.402.804-.804.804z"/></svg>