<svg xmlns="http://www.w3.org/2000/svg" viewBox="0 0 126.41 126.41"><path fill="#c6befe" d="M100.703 89.231a.964.964 0 0 0 .055-1.634L65.749 63.992c-1.091-.736-1.936-2.435-1.936-3.894 0-.823.269-1.412.699-1.675l.021-.013-38.587 22.381-.021.012c-.43.263-.699.852-.699 1.675 0 1.459.845 3.158 1.936 3.894l35.786 24.129a.964.964 0 0 0 1.023.035l3.658-2.122a1.448 1.448 0 0 1 1.383-.038l3.756 1.913c.437.223.958.209 1.383-.038l11.158-6.472a1.446 1.446 0 0 0 .237-2.331l-.838-.748a1.447 1.447 0 0 1 .237-2.331l15.757-9.139z"/><path fill="none" stroke="#4b00aa" stroke-linecap="round" stroke-linejoin="round" stroke-width="1.609" d="M100.703 89.231a.964.964 0 0 0 .055-1.634L65.749 63.992c-1.091-.736-1.936-2.435-1.936-3.894 0-.823.269-1.412.699-1.675l.021-.013-38.587 22.381-.021.012c-.43.263-.699.852-.699 1.675 0 1.459.845 3.158 1.936 3.894l35.786 24.129a.964.964 0 0 0 1.023.035l3.658-2.122a1.448 1.448 0 0 1 1.383-.038l3.756 1.913c.437.223.958.209 1.383-.038l11.158-6.472a1.446 1.446 0 0 0 .237-2.331l-.838-.748a1.447 1.447 0 0 1 .237-2.331l15.757-9.139z"/><path fill="#fff" stroke="#7855fa" stroke-linecap="round" stroke-linejoin="round" stroke-width="1.609" d="M63.891 97.997l36.568-21.21a.965.965 0 0 0-.066-1.704L65.749 58.438c-.476-.229-.905-.22-1.238-.017l.021-.013-38.587 22.381-.021.013c.333-.203.762-.212 1.238.017l35.827 17.213a.967.967 0 0 0 .902-.035z"/><path fill="none" stroke="#4b00aa" stroke-linecap="round" stroke-linejoin="round" stroke-width="1.609" d="M100.758 87.596l-8.756-5.904 8.457-4.905a.965.965 0 0 0-.066-1.704L65.749 58.438c-.476-.229-.905-.22-1.238-.017l.021-.013-.005.003.005-.003-38.587 22.381-.021.013c-.43.263-.699.852-.699 1.675 0 1.459.845 3.158 1.936 3.894L62.947 110.5a.964.964 0 0 0 1.023.035l3.658-2.122a1.448 1.448 0 0 1 1.383-.038l3.756 1.913c.437.223.958.209 1.383-.038l11.158-6.472a1.446 1.446 0 0 0 .237-2.331l-.838-.747a1.447 1.447 0 0 1 .237-2.331L100.7 89.23a.964.964 0 0 0 .055-1.634z"/><g fill="none" stroke="#4b00aa" stroke-linecap="round" stroke-linejoin="round" stroke-width="1.609"><path d="M86.321 54.046h0"/><path stroke-dasharray="0 0 0 4.745" d="M86.321 58.791v16.606"/><path d="M86.321 77.77h0"/></g><g fill="none" stroke="#131313" stroke-linecap="round" stroke-linejoin="round" stroke-width="1.609"><path d="M45.771 55.333h0"/><path stroke-dasharray="0 0 0 4.658" d="M45.771 59.992v16.303"/><path d="M45.771 78.624h0"/></g><path fill="#fff" d="M66.046 38.486l-9.828-5.674a.69.69 0 0 0-.62 0l-9.828 5.674 9.828 5.674a.69.69 0 0 0 .62 0l9.828-5.674z"/><path fill="#757575" stroke="#757575" stroke-linecap="round" stroke-linejoin="round" stroke-width="1.609" d="M55.908 55.373c.114 0 .229-.03.331-.089l9.806-5.662V38.486l-9.806 5.661a.667.667 0 0 1-.332.089"/><path fill="#d7d7d7" d="M55.908 44.236a.667.667 0 0 1-.332-.089l-9.806-5.661v11.136l9.806 5.662a.666.666 0 0 0 .331.089"/><path fill="none" stroke="#757575" stroke-linecap="round" stroke-linejoin="round" stroke-width="1.609" d="M66.046 38.486l-9.828-5.674a.69.69 0 0 0-.62 0l-9.828 5.674 9.828 5.674a.69.69 0 0 0 .62 0l9.828-5.674z"/><path fill="#757575" stroke="#757575" stroke-linecap="round" stroke-linejoin="round" stroke-width="1.609" d="M55.908 44.236v11.137"/><path fill="none" stroke="#131313" stroke-linecap="round" stroke-linejoin="round" stroke-width="1.609" d="M56.218 32.812a.684.684 0 0 0-.62 0l-9.828 5.674v11.136l9.806 5.662a.665.665 0 0 0 .663 0l9.806-5.662V38.486l-9.828-5.674z"/><g><path fill="#fff" d="M86.321 38.486l-9.828-5.674a.69.69 0 0 0-.62 0l-9.828 5.674 9.828 5.674a.69.69 0 0 0 .62 0l9.828-5.674z"/><path fill="#757575" stroke="#757575" stroke-linecap="round" stroke-linejoin="round" stroke-width="1.609" d="M76.184 55.373c.114 0 .229-.03.331-.089l9.806-5.662V38.486l-9.806 5.661a.667.667 0 0 1-.332.089"/><path fill="#d7d7d7" d="M76.184 44.236a.667.667 0 0 1-.332-.089l-9.806-5.661v11.136l9.806 5.662a.666.666 0 0 0 .331.089"/><path fill="none" stroke="#757575" stroke-linecap="round" stroke-linejoin="round" stroke-width="1.609" d="M86.321 38.486l-9.828-5.674a.69.69 0 0 0-.62 0l-9.828 5.674 9.828 5.674a.69.69 0 0 0 .62 0l9.828-5.674z"/><path fill="#757575" stroke="#757575" stroke-linecap="round" stroke-linejoin="round" stroke-width="1.609" d="M76.184 44.236v11.137"/><path fill="none" stroke="#131313" stroke-linecap="round" stroke-linejoin="round" stroke-width="1.609" d="M76.494 32.812a.684.684 0 0 0-.62 0l-9.828 5.674v11.136l9.806 5.662a.665.665 0 0 0 .663 0l9.806-5.662V38.486l-9.828-5.674z"/></g><g><path fill="#d7d7d7" d="M66.046 27.242a.667.667 0 0 1-.332-.089l-9.806-5.661v11.136l9.806 5.662a.666.666 0 0 0 .331.089"/><path fill="#757575" stroke="#757575" stroke-linecap="round" stroke-linejoin="round" stroke-width="1.609" d="M66.046 38.379c.114 0 .229-.03.331-.089l9.806-5.662V21.492l-9.806 5.661a.667.667 0 0 1-.332.089v11.137z"/><path fill="#fff" stroke="#757575" stroke-linecap="round" stroke-linejoin="round" stroke-width="1.609" d="M76.184 21.492l-9.828-5.674a.69.69 0 0 0-.62 0l-9.828 5.674 9.828 5.674a.69.69 0 0 0 .62 0l9.828-5.674z"/><path fill="none" stroke="#131313" stroke-linecap="round" stroke-linejoin="round" stroke-width="1.609" d="M66.356 15.818a.684.684 0 0 0-.62 0l-9.828 5.674v11.136l9.806 5.662a.665.665 0 0 0 .663 0l9.806-5.662V21.492l-9.828-5.674z"/></g><path fill="none" stroke="#757575" stroke-linecap="round" stroke-linejoin="round" stroke-width="1.609" d="M86.321 77.769l-10.507-5.212-9.768 5.64 10.508 5.212 9.767-5.64z"/><path fill="none" stroke="#757575" stroke-linecap="round" stroke-linejoin="round" stroke-width="1.609" d="M75.814 72.557l-10.508-5.212-9.768 5.64 10.508 5.212 9.768-5.64z"/><path fill="none" stroke="#757575" stroke-linecap="round" stroke-linejoin="round" stroke-width="1.609" d="M66.046 78.197l-10.508-5.212-9.767 5.639 10.507 5.212 9.768-5.639z"/><path fill="none" d="M14.94 14.94h96.531v96.531H14.94z"/><path fill="none" d="M14.94 14.94h96.531v96.531H14.94z"/></svg>