<svg xmlns="http://www.w3.org/2000/svg" viewBox="0 0 126.41 126.41"><path fill="#fff" d="M100.238 73.147c0-3.7-2.25-7.999-5.025-9.601l-7.935-4.581-13.108-7.568c-1.256-.725-2.402-.768-3.283-.26l-.005-.005-3.73 2.154 2.012 1.419c-.009.161-.019.321-.019.491 0 3.7 2.25 7.999 5.025 9.601l6.164 3.559 7.391 4.267 7.045 6.742 3.73-2.154-.006-.004c1.066-.613 1.743-2.034 1.743-4.06z"/><path fill="#757575" d="M100.238 73.147c0-.996-.168-2.036-.46-3.055l-9.166 5.292 4.159 3.98 3.73-2.154-.006-.004c1.066-.613 1.743-2.034 1.743-4.06z"/><path fill="#d7d7d7" stroke="#757575" stroke-miterlimit="10" stroke-width="1.609" d="M91.483 65.7l-10.656-6.152-10.387-5.997c-2.775-1.602-5.025.099-5.025 3.799s2.25 7.999 5.025 9.601l10.387 5.997L91.483 79.1c2.775 1.602 5.025-.099 5.025-3.799h0c0-3.7-2.25-7.999-5.025-9.601z"/><ellipse cx="70.44" cy="60.25" fill="#757575" rx="1.192" ry="2.106" transform="rotate(-23.051 70.439 60.25)"/><ellipse cx="91.483" cy="72.399" fill="#757575" rx="1.182" ry="2.089" transform="rotate(-23.051 91.483 72.4)"/><path fill="none" stroke="#131313" stroke-linecap="round" stroke-linejoin="round" stroke-width="1.609" d="M100.238 73.147c0-3.7-2.25-7.998-5.025-9.601l-7.935-4.581-13.108-7.568c-1.256-.725-2.402-.768-3.283-.26l-.005-.005-3.73 2.154.006.004c-1.066.613-1.743 2.034-1.743 4.06 0 3.7 2.25 7.998 5.025 9.601l10.386 5.996h0l4.79 2.766 5.867 3.387c.52.3 1.022.485 1.494.561.472.077.914.046 1.315-.084.166-.054.322-.13.474-.217l.005.005 3.73-2.154-.006-.004c1.066-.613 1.743-2.034 1.743-4.06z"/><ellipse cx="74.17" cy="58.096" fill="none" rx="4.364" ry="7.714" transform="rotate(-23.051 74.17 58.097)"/><g><path fill="#131313" d="M73.952 88.421l-13.295-7.676c-1.349-.779-3.536-.779-4.885 0l-3.608 2.083-2.697-1.093v4.267c0 .51.337 1.021 1.012 1.41l19.8 11.432c1.349.779 3.536.779 4.885 0l5.293-3.056c.674-.389 1.012-.9 1.012-1.41v-4.267l-7.517-1.689z"/><path fill="#757575" d="M72.573 87.625l-11.916-6.88c-1.349-.779-3.536-.779-4.885 0l-3.608 2.083-2.697-1.093v4.267c0 .51.337 1.021 1.012 1.41l19.8 11.432c.637.368 1.46.555 2.294.576V87.625z"/><path fill="#d7d7d7" d="M60.656 77.269c-1.349-.779-3.536-.779-4.885 0l-5.294 3.056c-1.349.779-1.349 2.041 0 2.82l19.8 11.432c1.349.779 3.536.779 4.885 0l5.294-3.056c1.349-.779 1.349-2.041 0-2.82l-19.8-11.432z"/><path fill="none" stroke="#fff" stroke-linecap="round" stroke-linejoin="round" stroke-width="1.609" d="M60.656 77.269c-1.349-.779-3.536-.779-4.885 0l-5.294 3.056c-1.349.779-1.349 2.041 0 2.82l19.8 11.432c1.349.779 3.536.779 4.885 0l5.294-3.056c1.349-.779 1.349-2.041 0-2.82l-19.8-11.432z"/><path fill="none" stroke="#131313" stroke-linecap="round" stroke-linejoin="round" stroke-width="1.609" d="M81.468 90.111c0-.51-.337-1.021-1.012-1.41l-19.8-11.432c-1.349-.779-3.536-.779-4.885 0l-5.294 3.056c-.674.389-1.012.9-1.012 1.41h0v4.267c0 .51.337 1.021 1.012 1.41l19.8 11.432c1.349.779 3.536.779 4.885 0l5.293-3.056c.674-.389 1.012-.9 1.012-1.41v-4.267h0z"/><path fill="#131313" d="M54.488 99.659l-13.295-7.676c-1.349-.779-3.536-.779-4.885 0L32.7 94.066l-2.697-1.093v4.267c0 .51.337 1.021 1.012 1.41l19.8 11.432c1.349.779 3.536.779 4.885 0l5.293-3.056c.674-.389 1.012-.9 1.012-1.41v-4.267l-7.517-1.689z"/><path fill="#757575" d="M53.109 98.862l-11.916-6.88c-1.349-.779-3.536-.779-4.885 0L32.7 94.065l-2.697-1.093v4.267c0 .51.337 1.021 1.012 1.41l19.8 11.432c.637.368 1.46.555 2.294.576V98.862z"/><path fill="#d7d7d7" d="M41.193 88.506c-1.349-.779-3.536-.779-4.885 0l-5.294 3.056c-1.349.779-1.349 2.041 0 2.82l19.8 11.432c1.349.779 3.536.779 4.885 0l5.294-3.056c1.349-.779 1.349-2.041 0-2.82l-19.8-11.432z"/><path fill="none" stroke="#fff" stroke-linecap="round" stroke-linejoin="round" stroke-width="1.609" d="M41.193 88.506c-1.349-.779-3.536-.779-4.885 0l-5.294 3.056c-1.349.779-1.349 2.041 0 2.82l19.8 11.432c1.349.779 3.536.779 4.885 0l5.294-3.056c1.349-.779 1.349-2.041 0-2.82l-19.8-11.432z"/><path fill="none" stroke="#131313" stroke-linecap="round" stroke-linejoin="round" stroke-width="1.609" d="M62.005 101.348c0-.51-.337-1.021-1.012-1.41l-19.8-11.432c-1.349-.779-3.536-.779-4.885 0l-5.294 3.056c-.674.389-1.012.9-1.012 1.41h0v4.267c0 .51.337 1.021 1.012 1.41l19.8 11.432c1.349.779 3.536.779 4.885 0l5.293-3.056c.674-.389 1.012-.9 1.012-1.41v-4.267h0z"/></g><g><path fill="#d7d7d7" d="M77.673 63.879l-.017.006a2.627 2.627 0 0 0-.174-.945h.007l-3.414-8.791-8.327 1.059-1.846-1.066c-2.946-1.701-7.722-1.701-10.668 0l-5.905 3.409-14.816 1.885-3.418 9.659h.004a2.605 2.605 0 0 0-.142.894h-.014l.073 17.402h.001c.007 1.109.742 2.217 2.208 3.063l11.561 6.675c2.946 1.701 7.722 1.701 10.668 0l22.083-12.75c1.48-.855 2.215-1.976 2.208-3.096h.001l-.073-17.403z"/><path fill="#757575" d="M77.657 63.884a2.627 2.627 0 0 0-.174-.945h.007l-3.414-8.791-8.327 1.059-1.846-1.066c-2.946-1.701-7.722-1.701-10.668 0l-4.36 2.517V98.38c1.671-.097 3.298-.514 4.578-1.253l22.083-12.75c1.48-.855 2.215-1.976 2.208-3.096h.001l-.073-17.403-.017.006z"/><path fill="#fff" stroke="#757575" stroke-linecap="round" stroke-linejoin="round" stroke-width="1.609" d="M53.246 46.593c2.53-1.461 6.632-1.461 9.162 0l9.929 5.732c2.53 1.461 2.53 3.829 0 5.29l-18.966 10.95c-2.53 1.461-6.632 1.461-9.162 0l-9.929-5.732c-2.53-1.461-2.53-3.829 0-5.29l18.966-10.95z"/><path fill="none" stroke="#131313" stroke-linecap="round" stroke-linejoin="round" stroke-width="1.609" d="M77.673 63.879l-.01.003a2.63 2.63 0 0 0-.181-.943h.007l-3.414-8.791h-.006c-.259-.667-.833-1.303-1.734-1.823l-9.929-5.732c-2.53-1.461-6.632-1.461-9.162 0l-18.966 10.95c-.932.538-1.517 1.199-1.763 1.892h-.003l-3.418 9.66h.004a2.64 2.64 0 0 0-.151.893h-.006l.073 17.402h.001c.007 1.109.742 2.217 2.208 3.063l11.561 6.675c2.946 1.701 7.722 1.701 10.668 0l22.083-12.75c1.48-.855 2.216-1.976 2.208-3.096h.001l-.073-17.403z"/></g><path fill="#fff" stroke="#d7d7d7" stroke-linecap="round" stroke-linejoin="round" stroke-width="1.609" d="M58.922 88.036V74.553l11.864-6.85v13.483l-11.864 6.85z"/><g><path fill="#757575" d="M41.873 46.289v12.715c0 .523.346 1.046 1.037 1.445l5.426 3.133c1.383.798 3.624.798 5.007 0l10.365-5.984c.691-.399 1.037-.922 1.037-1.445V43.438c-.65 0-22.871 2.851-22.871 2.851z"/><path fill="#d7d7d7" d="M51.181 45.102c-4.928.625-9.308 1.187-9.308 1.187v12.715c0 .523.346 1.046 1.037 1.445l5.426 3.133c.779.45 1.829.637 2.846.58v-19.06z"/><path fill="#fff" d="M53.274 38.86c1.383-.798 3.624-.798 5.007 0l5.426 3.133c1.383.798 1.383 2.092 0 2.891l-10.365 5.984c-1.383.798-3.624.798-5.007 0l-5.426-3.133c-1.383-.798-1.383-2.092 0-2.891l10.365-5.984z"/><path fill="none" stroke="#757575" stroke-miterlimit="10" stroke-width="1.609" d="M63.707 41.992l-5.426-3.133c-1.383-.798-3.624-.798-5.007 0l-10.365 5.984c-.691.399-1.037.922-1.037 1.445v12.715c0 .523.346 1.046 1.037 1.445l5.426 3.133c.187.108.392.199.606.277.045.016.093.027.14.042.18.06.365.112.557.152l.102.018a5.768 5.768 0 0 0 .697.087c.248.016.495.017.743.003h0c.788-.044 1.558-.231 2.161-.58l10.365-5.984c.691-.399 1.037-.922 1.037-1.445V43.436c0-.523-.346-1.046-1.037-1.445z"/></g><g><path fill="#fff" d="M66.004 92.912c0-3.7-2.25-7.999-5.025-9.601l-7.935-4.581-13.108-7.568c-1.256-.725-2.402-.768-3.283-.26l-.005-.005-3.73 2.154 2.012 1.419c-.009.161-.019.321-.019.491 0 3.7 2.25 7.999 5.025 9.601l6.164 3.559 7.391 4.267 7.045 6.742 3.73-2.154-.006-.004c1.066-.613 1.743-2.034 1.743-4.06z"/><path fill="#757575" d="M66.004 92.912c0-.996-.168-2.036-.46-3.055l-9.166 5.292 4.159 3.98 3.73-2.154-.006-.004c1.066-.613 1.743-2.034 1.743-4.06z"/><path fill="#d7d7d7" stroke="#757575" stroke-miterlimit="10" stroke-width="1.609" d="M57.249 85.465l-10.656-6.152-10.387-5.997c-2.775-1.602-5.025.099-5.025 3.799s2.25 7.999 5.025 9.601l10.387 5.997 10.656 6.152c2.775 1.602 5.025-.099 5.025-3.799h0c0-3.7-2.25-7.999-5.025-9.601z"/><ellipse cx="36.206" cy="80.015" fill="#757575" rx="1.192" ry="2.106" transform="rotate(-23.051 36.206 80.015)"/><ellipse cx="57.249" cy="92.165" fill="#757575" rx="1.182" ry="2.089" transform="rotate(-23.051 57.25 92.164)"/><path fill="none" stroke="#131313" stroke-linecap="round" stroke-linejoin="round" stroke-width="1.609" d="M66.004 92.912c0-3.7-2.25-7.998-5.025-9.601l-7.935-4.581-13.108-7.568c-1.256-.725-2.402-.768-3.283-.26l-.005-.005-3.73 2.154.006.004c-1.066.613-1.743 2.034-1.743 4.06 0 3.7 2.25 7.998 5.025 9.601l10.386 5.996h0l4.79 2.766 5.867 3.387c.52.3 1.022.485 1.494.561.472.077.914.046 1.315-.084.166-.054.322-.13.474-.217l.005.005 3.73-2.154-.006-.004c1.066-.613 1.743-2.034 1.743-4.06z"/><ellipse cx="39.936" cy="77.862" fill="none" rx="4.364" ry="7.714" transform="rotate(-23.051 39.937 77.861)"/></g><g><path fill="#fff" stroke="#131313" stroke-linecap="round" stroke-linejoin="round" stroke-width="1.609" d="M77.987 26.827l.007-.007-18.337-10.587-.002.002c-1.28-.739-2.949-.672-4.775.383L33.473 28.977c-4.032 2.328-7.301 8.574-7.301 13.951 0 2.941.98 5.01 2.526 5.902l-.002.002 18.337 10.587.007-.007c1.28.738 2.945.676 4.771-.378l21.407-12.359c4.032-2.328 7.301-8.574 7.301-13.951h0c0-2.942-.983-5.006-2.53-5.898z"/><path fill="#d7d7d7" d="M28.917 33.744c-1.672 2.749-2.745 6.108-2.745 9.184 0 2.941.98 5.01 2.526 5.902l-.002.002 18.337 10.587.007-.007c1.28.738 2.945.676 4.771-.378l10.456-6.037-33.349-19.254z"/><path fill="#131313" d="M73.216 46.676L51.809 59.035c-4.032 2.328-7.301-.143-7.301-5.52s3.269-11.623 7.301-13.951l21.407-12.359c4.032-2.328 7.301.143 7.301 5.52s-3.269 11.623-7.301 13.951z"/><path fill="none" stroke="#757575" stroke-miterlimit="10" stroke-width="1.609" d="M73.216 46.676L51.809 59.035c-4.032 2.328-7.301-.143-7.301-5.52h0c0-5.377 3.269-11.623 7.301-13.951l21.407-12.359c4.032-2.328 7.301.143 7.301 5.52h0c0 5.377-3.269 11.623-7.301 13.951z"/><path fill="none" stroke="#131313" stroke-linecap="round" stroke-linejoin="round" stroke-width="1.609" d="M77.987 26.827l.007-.007-18.337-10.587-.002.002c-1.28-.739-2.949-.672-4.775.383L33.473 28.977c-4.032 2.328-7.301 8.574-7.301 13.951 0 2.941.98 5.01 2.526 5.902l-.002.002 18.337 10.587.007-.007c1.28.738 2.945.676 4.771-.378l21.407-12.359c4.032-2.328 7.301-8.574 7.301-13.951h0c0-2.942-.983-5.006-2.53-5.898zM58.952 24.908l-11.121 6.421"/><ellipse cx="53.432" cy="48.363" fill="#757575" rx="6.319" ry="3.575" transform="rotate(-66.949 53.432 48.363)"/><ellipse cx="71.594" cy="37.877" fill="#757575" rx="5.898" ry="3.337" transform="rotate(-66.949 71.594 37.877)"/><path fill="none" stroke="#757575" stroke-linecap="round" stroke-linejoin="round" stroke-width="1.609" d="M63.847 47.933l-2.393 1.382"/></g></svg>