<svg xmlns="http://www.w3.org/2000/svg" viewBox="0 0 126.41 126.41"><g fill="none" stroke="#131313" stroke-linecap="round" stroke-linejoin="round" stroke-width="1.609"><path d="M29.408 45.635h0"/><path stroke-dasharray="0 0 0 5.206" d="M29.408 50.841v23.425"/><path d="M29.408 76.869h0"/></g><g fill="none" stroke="#4b00aa" stroke-linecap="round" stroke-linejoin="round" stroke-width="1.609"><path d="M96.987 45.085h0"/><path stroke-dasharray="0 0 0 4.54" d="M96.987 49.626v24.972"/><path d="M96.987 76.869h0"/></g><path fill="#d7d7d7" stroke="#757575" stroke-linecap="round" stroke-linejoin="round" stroke-width="1.609" d="M78.154 76.868l-12.229-6.897c-1.507-.85-3.949-.85-5.455 0l-12.229 6.897H29.408v11.523c0 .557.377 1.114 1.13 1.538L60.47 106.81c1.507.85 3.949.85 5.455 0l29.932-16.881c.753-.425 1.13-.982 1.13-1.538V76.868H78.154z"/><path fill="#757575" d="M65.925 106.811L95.857 89.93c.753-.425 1.13-.982 1.13-1.538V76.869H78.154l-12.229-6.897c-.753-.425-1.74-.637-2.728-.637v38.114c.987 0 1.975-.212 2.728-.637z"/><path fill="#d7d7d7" stroke="#757575" stroke-linecap="round" stroke-linejoin="round" stroke-width="1.609" d="M49.927 95.541l-8.847-4.989"/><path fill="#fff" stroke="#757575" stroke-linecap="round" stroke-linejoin="round" stroke-width="1.609" d="M95.857 75.33L65.925 58.449c-1.506-.85-3.949-.85-5.455 0L30.538 75.33c-1.506.85-1.506 2.227 0 3.077L60.47 95.288c1.506.85 3.949.85 5.455 0l29.932-16.881c1.506-.85 1.506-2.227 0-3.077z"/><path fill="#757575" stroke="#d7d7d7" stroke-linecap="round" stroke-linejoin="round" stroke-width="1.609" d="M88.848 93.883l-15.814 8.919v-5.324l15.814-8.919v5.324z"/><path fill="none" stroke="#131313" stroke-linecap="round" stroke-linejoin="round" stroke-width="1.609" d="M95.857 75.33L65.925 58.449c-1.507-.85-3.949-.85-5.455 0L30.538 75.33c-.753.425-1.13.982-1.13 1.538v11.523c0 .557.377 1.114 1.13 1.538L60.47 106.81c.753.425 1.74.637 2.728.637s1.975-.212 2.728-.637l29.932-16.881c.753-.425 1.13-.982 1.13-1.538V76.868c0-.557-.377-1.114-1.13-1.538z"/><g fill="#757575"><ellipse cx="89.262" cy="76.868" rx="1.532" ry=".864"/><ellipse cx="63.198" cy="91.568" rx="1.532" ry=".864"/><ellipse cx="63.198" cy="62.168" rx="1.532" ry=".864"/><ellipse cx="37.133" cy="76.868" rx="1.532" ry=".864"/></g><g stroke-linecap="round" stroke-linejoin="round"><path fill="#d7d7d7" stroke="#757575" stroke-width="1.609" d="M96.574 45.871a.828.828 0 0 0 .049-1.42L65.475 23.936c-.971-.64-1.723-2.116-1.723-3.384 0-.715.239-1.227.622-1.456l.019-.011-34.33 19.451-.019.011c-.383.229-.622.741-.622 1.456 0 1.268.752 2.745 1.723 3.384l31.839 20.97c.273.18.626.191.91.03l3.255-1.844a1.316 1.316 0 0 1 1.23-.033l3.342 1.663c.389.194.852.181 1.23-.033l9.927-5.624a1.24 1.24 0 0 0 .211-2.026l-.745-.65a1.24 1.24 0 0 1 .211-2.026l14.018-7.943z"/><path fill="#d7d7d7" stroke="#757575" stroke-width="1.609" d="M96.574 45.871a.828.828 0 0 0 .049-1.42L65.475 23.936c-.971-.64-1.723-2.116-1.723-3.384 0-.715.239-1.227.622-1.456l.019-.011-34.33 19.451-.019.011c-.383.229-.622.741-.622 1.456 0 1.268.752 2.745 1.723 3.384l31.839 20.97c.273.18.626.191.91.03l3.255-1.844a1.316 1.316 0 0 1 1.23-.033l3.342 1.663c.389.194.852.181 1.23-.033l9.927-5.624a1.24 1.24 0 0 0 .211-2.026l-.745-.65a1.24 1.24 0 0 1 .211-2.026l14.018-7.943z"/><path fill="#fff" stroke="#757575" stroke-width="1.609" d="M63.823 53.49l32.534-18.434a.83.83 0 0 0-.059-1.481L65.476 19.109c-.423-.199-.805-.191-1.101-.014l.019-.011-34.33 19.451-.019.011c.296-.177.678-.184 1.101.014l31.875 14.96c.256.12.557.109.802-.03z"/><path fill="#c6befe" stroke="#c6befe" stroke-width=".804" d="M80.644 31.68l-10.063 5.697 5.128 2.407 10.063-5.697-5.128-2.407z"/><path fill="none" stroke="#131313" stroke-width="1.609" d="M96.623 44.451l-7.79-5.131 7.524-4.263a.83.83 0 0 0-.059-1.481L65.476 19.11c-.423-.199-.805-.191-1.101-.015l.019-.011-.004.003.004-.003-34.33 19.451-.019.011c-.383.229-.622.741-.622 1.456 0 1.268.752 2.745 1.723 3.384l31.839 20.97c.273.18.626.191.91.03l3.255-1.844a1.313 1.313 0 0 1 1.23-.033l3.342 1.663c.389.194.852.181 1.23-.033l9.927-5.625a1.24 1.24 0 0 0 .211-2.026l-.745-.649a1.24 1.24 0 0 1 .211-2.026l14.018-7.943a.828.828 0 0 0 .049-1.42z"/></g><path fill="#7855fa" stroke="#7855fa" stroke-linecap="round" stroke-linejoin="round" stroke-width="1.609" d="M75.03 29.593l-4.427 2.497"/><path fill="none" d="M14.94 14.94h96.531v96.531H14.94z"/><path fill="none" d="M14.94 14.94h96.531v96.531H14.94z"/></svg>