<svg xmlns="http://www.w3.org/2000/svg" viewBox="0 0 126.41 126.41"><g fill="none" stroke="#131313" stroke-linecap="round" stroke-linejoin="round" stroke-width="1.609"><path d="M45.414 46.358h0"/><path stroke-dasharray="0 0 0 4.351" d="M45.414 50.708v6.527"/><path d="M45.414 59.41h0"/></g><g fill="none" stroke="#4b00aa" stroke-linecap="round" stroke-linejoin="round" stroke-width="1.609"><path d="M80.907 46.441h0"/><path stroke-dasharray="0 0 0 4.351" d="M80.907 50.792v6.526"/><path d="M80.907 59.493h0"/></g><path fill="#fff" d="M45.5 100.345L27.739 90.023l-.058-20.376 17.761 10.322.058 20.376z"/><path fill="#fff" d="M63.174 69.731l.058 20.376L45.5 100.345l-.058-20.376 17.732-10.238z"/><path fill="none" stroke="#757575" stroke-linecap="round" stroke-linejoin="round" stroke-width="1.609" d="M63.174 69.731l.058 20.376L45.5 100.345l-.058-20.376 17.732-10.238z"/><path fill="none" stroke="#c6befe" stroke-linecap="round" stroke-linejoin="round" stroke-width="1.609" d="M45.561 79.899l17.675 10.208M27.743 90.023l17.554-10.138"/><path fill="#fff" d="M45.442 79.969L27.681 69.647 45.414 59.41l17.76 10.321-17.732 10.238z"/><path fill="none" stroke="#c6befe" stroke-linecap="round" stroke-linejoin="round" stroke-width="1.609" d="M45.475 59.41l.028 20.559"/><path fill="none" stroke="#7855fa" stroke-linecap="round" stroke-linejoin="round" stroke-width="1.609" d="M45.442 79.969L27.681 69.647 45.414 59.41l17.76 10.321-17.732 10.238zM45.475 79.786l.028 20.559"/><path fill="none" stroke="#4b00aa" stroke-linecap="round" stroke-linejoin="round" stroke-width="1.609" d="M63.174 69.731L45.414 59.41 27.681 69.647l.058 20.376L45.5 100.345l17.732-10.238-.058-20.376z"/><path fill="#fff" d="M80.993 100.428L63.232 90.107l-.058-20.376 17.761 10.321.058 20.376z"/><path fill="#fff" d="M98.667 69.815l.058 20.375-17.732 10.238-.058-20.376 17.732-10.237z"/><path fill="none" stroke="#757575" stroke-linecap="round" stroke-linejoin="round" stroke-width="1.609" d="M98.667 69.815l.058 20.375-17.732 10.238-.058-20.376 17.732-10.237z"/><path fill="none" stroke="#c6befe" stroke-linecap="round" stroke-linejoin="round" stroke-width="1.609" d="M81.054 79.983L98.728 90.19M63.236 90.107L80.79 79.969"/><path fill="#fff" d="M80.935 80.052L63.174 69.731l17.733-10.238 17.76 10.322-17.732 10.237z"/><path fill="none" stroke="#c6befe" stroke-linecap="round" stroke-linejoin="round" stroke-width="1.609" d="M80.968 59.493l.028 20.559"/><path fill="none" stroke="#7855fa" stroke-linecap="round" stroke-linejoin="round" stroke-width="1.609" d="M80.935 80.052L63.174 69.731l17.733-10.238 17.76 10.322-17.732 10.237zM80.968 79.869l.028 20.559"/><path fill="none" stroke="#4b00aa" stroke-linecap="round" stroke-linejoin="round" stroke-width="1.609" d="M98.667 69.814l-17.76-10.321-17.733 10.238.058 20.376 17.761 10.321L98.725 90.19l-.058-20.376z"/><path fill="#fff" d="M63.26 110.666L45.5 100.344l-.058-20.375 17.76 10.321.058 20.376zM80.935 80.052l.058 20.376-17.733 10.238-.058-20.376 17.733-10.238z"/><path fill="none" stroke="#757575" stroke-linecap="round" stroke-linejoin="round" stroke-width="1.609" d="M80.935 80.052l.058 20.376-17.733 10.238-.058-20.376 17.733-10.238z"/><path fill="none" stroke="#d7d7d7" stroke-linecap="round" stroke-linejoin="round" stroke-width="1.609" d="M63.321 90.22l17.675 10.208M45.503 100.344l17.554-10.138"/><path fill="#fff" d="M63.202 90.29l-17.76-10.321 17.732-10.238 17.761 10.321L63.202 90.29z"/><path fill="none" stroke="#d7d7d7" stroke-linecap="round" stroke-linejoin="round" stroke-width="1.609" d="M63.236 69.731l.028 20.559"/><path fill="none" stroke="#757575" stroke-linecap="round" stroke-linejoin="round" stroke-width="1.609" d="M63.202 90.29l-17.76-10.321 17.732-10.238 17.761 10.321L63.202 90.29zM63.236 90.107l.028 20.559"/><path fill="none" stroke="#131313" stroke-linecap="round" stroke-linejoin="round" stroke-width="1.609" d="M80.935 80.052L63.174 69.731 45.442 79.968l.058 20.376 17.76 10.322 17.733-10.238-.058-20.376z"/><path fill="#fff" d="M63.174 56.679l-17.76-10.321-.058-20.376 17.761 10.321.057 20.376z"/><path fill="#fff" d="M80.849 26.065l.058 20.376-17.733 10.238-.057-20.376 17.732-10.238z"/><path fill="none" stroke="#757575" stroke-linecap="round" stroke-linejoin="round" stroke-width="1.609" d="M80.849 26.065l.058 20.376-17.733 10.238-.057-20.376 17.732-10.238z"/><path fill="none" stroke="#d7d7d7" stroke-linecap="round" stroke-linejoin="round" stroke-width="1.609" d="M63.236 36.234L80.91 46.441M45.417 46.358L62.971 36.22"/><path fill="#fff" d="M63.117 36.303L45.356 25.982l17.732-10.238 17.761 10.321-17.732 10.238z"/><path fill="none" stroke="#d7d7d7" stroke-linecap="round" stroke-linejoin="round" stroke-width="1.609" d="M63.15 15.744l.028 20.559"/><path fill="none" stroke="#757575" stroke-linecap="round" stroke-linejoin="round" stroke-width="1.609" d="M63.117 36.303L45.356 25.982l17.732-10.238 17.761 10.321-17.732 10.238zM63.15 36.12l.028 20.559"/><path fill="none" stroke="#131313" stroke-linecap="round" stroke-linejoin="round" stroke-width="1.609" d="M80.849 26.065L63.088 15.744 45.356 25.982l.058 20.376 17.76 10.321 17.733-10.238-.058-20.376z"/><path fill="none" d="M14.94 14.94h96.531v96.531H14.94z"/><path fill="none" d="M14.94 14.94h96.531v96.531H14.94z"/></svg>