<svg xmlns="http://www.w3.org/2000/svg" viewBox="0 0 126.41 126.41"><g fill="none" stroke="#131313" stroke-linecap="round" stroke-linejoin="round" stroke-width="1.609"><path d="M51.976 91.931h0"/><path stroke-dasharray="0 0 0 4.628" d="M55.984 94.245l2.004 1.157"/><path d="M59.992 96.559h0"/></g><g fill="none" stroke="#4b00aa" stroke-linecap="round" stroke-linejoin="round" stroke-width="1.609"><path d="M85.906 62.137h0"/><path stroke-dasharray="0 0 0 4.561" d="M89.856 64.417l9.874 5.701"/><path d="M101.705 71.258h0"/></g><path fill="#fff" stroke="#757575" stroke-linecap="round" stroke-linejoin="round" stroke-width="1.609" d="M85.566 19.716l-6.771-3.909-.003.006c-.173-.099-.395-.096-.641.046L21.19 48.745c-.543.314-.984 1.156-.984 1.88v55.269c0 .397.135.671.344.791l-.004.005 6.771 3.909 5.691-10.784 45.143-30.504c.543-.314.984-1.155.984-1.88V28.288l6.431-8.572z"/><path fill="#d7d7d7" d="M26.977 110.403V45.404l-5.787 3.341c-.543.314-.984 1.156-.984 1.88v55.269c0 .397.135.671.344.791l-.004.005 6.431 3.713z"/><path fill="#757575" stroke="#131313" stroke-linecap="round" stroke-linejoin="round" stroke-width="1.609" d="M58.537 80.636l19.614-11.324c.543-.314.984-1.155.984-1.88V28.288l6.431-8.572-6.771-3.909-.003.006c-.173-.099-.395-.096-.641.046L21.19 48.745c-.543.314-.984 1.156-.984 1.88v7.88l38.331 22.13z"/><path fill="#d7d7d7" d="M60.364 73.81l18.771-26.202V28.287l6.431-8.572-6.771-3.909-.003.006c-.173-.1-.395-.096-.641.046L21.19 48.745c-.543.314-.984 1.156-.984 1.88S60.364 73.81 60.364 73.81z"/><path fill="#fff" stroke="#757575" stroke-linecap="round" stroke-linejoin="round" stroke-width="1.609" d="M84.922 77.661l-56.961 32.886c-.543.314-.984-.019-.984-.744V54.534c0-.725.441-1.566.984-1.88l56.961-32.886c.543-.314.984.019.984.744v55.269c0 .725-.441 1.566-.984 1.88z"/><g fill="none" stroke="#131313" stroke-linecap="round" stroke-linejoin="round" stroke-width="1.609"><path d="M37.458 83.978h0"/><path stroke-dasharray="0 0 0 5.272" d="M42.023 86.614l11.414 6.59"/><path d="M55.719 94.521h0"/></g><path fill="none" stroke="#131313" stroke-linecap="round" stroke-linejoin="round" stroke-width="1.609" d="M85.562 19.721l.004-.005-6.771-3.909-.003.006c-.173-.1-.395-.096-.641.046L21.19 48.745c-.543.314-.984 1.156-.984 1.88v55.269c0 .397.135.671.344.791l-.004.005 6.771 3.909.003-.006c.173.1.395.096.641-.046l56.961-32.886c.543-.314.984-1.156.984-1.88V20.512c0-.397-.135-.671-.344-.791z"/><path fill="#131313" stroke="#131313" stroke-linecap="round" stroke-linejoin="round" stroke-width="1.609" d="M85.906 28.392v-7.88c0-.725-.441-1.058-.984-.744L27.961 52.654c-.543.314-.984 1.155-.984 1.88v7.88l58.929-34.023z"/><ellipse cx="37.313" cy="52.076" fill="#d7d7d7" rx="1.704" ry=".964" transform="rotate(-66.949 37.313 52.076)"/><ellipse cx="41.595" cy="49.604" fill="#fff" rx="1.704" ry=".964" transform="rotate(-66.949 41.594 49.605)"/><ellipse cx="32.859" cy="54.648" fill="#757575" rx="1.704" ry=".964" transform="rotate(-66.949 32.859 54.648)"/><g fill="none" stroke="#7855fa" stroke-linecap="round" stroke-linejoin="round" stroke-width="1.609"><path d="M53.913 68.506V87.02L75.426 74.6V56.086l-21.513 12.42z"/><path d="M37.457 65.464v18.514L58.97 71.557V53.044l-21.513 12.42z"/></g><path fill="#fff" stroke="#757575" stroke-linecap="round" stroke-linejoin="round" stroke-width="1.609" d="M101.705 71.258l4.499 2.597-16.456 9.501v-5.195l11.957-6.903zM80.192 102.192l4.499 2.598V92.525l-4.499 2.319v7.348z"/><path fill="#fff" stroke="#757575" stroke-linecap="round" stroke-linejoin="round" stroke-width="1.609" d="M68.235 83.233v18.514l21.513-12.42V70.813l-21.513 12.42z"/><path fill="#d7d7d7" d="M84.691 86.276v18.514l21.513-12.421V73.855L84.691 86.276z"/><path fill="#fff" stroke="#757575" stroke-linecap="round" stroke-linejoin="round" stroke-width="1.609" d="M84.691 86.276v18.514l21.513-12.421V73.855L84.691 86.276zM85.249 68.215l4.499 2.598-21.513 12.42-4.499-2.597 21.513-12.421z"/><path fill="#fff" stroke="#757575" stroke-linecap="round" stroke-linejoin="round" stroke-width="1.609" d="M63.736 99.15l4.499 2.597V83.233l-4.499-2.597V99.15z"/><path fill="none" stroke="#757575" stroke-linecap="round" stroke-linejoin="round" stroke-width="1.609" d="M89.748 89.327v-5.971l-5.057 2.92v5.97l5.057-2.919z"/><path fill="none" stroke="#131313" stroke-linecap="round" stroke-linejoin="round" stroke-width="1.609" d="M101.705 71.258l-11.957 6.903v-7.348l-4.499-2.598-21.513 12.421V99.15l4.499 2.597 11.957-6.903v7.348l4.499 2.598 21.513-12.421V73.855l-4.499-2.597z"/><g fill="none" stroke="#4b00aa" stroke-linecap="round" stroke-linejoin="round" stroke-width="1.609"><path d="M78.991 58.144h0"/><path stroke-dasharray="0 0 0 3.992" d="M82.449 60.14l1.728.998"/><path d="M85.906 62.137h0"/></g><path fill="none" d="M14.94 14.94h96.531v96.531H14.94z"/><path fill="none" d="M14.94 14.94h96.531v96.531H14.94z"/></svg>